<svg width="97" height="18" viewBox="0 0 97 18" fill="none" xmlns="http://www.w3.org/2000/svg">
<path d="M17.793 12.6221C17.3079 12.6221 16.8669 12.5326 16.4697 12.3535C16.0726 12.1712 15.7292 11.9255 15.4395 11.6162L15.8936 11.0791C16.1344 11.3428 16.4225 11.5479 16.7578 11.6943C17.0931 11.8408 17.4414 11.9141 17.8027 11.9141C18.2617 11.9141 18.6198 11.8099 18.877 11.6016C19.1341 11.3932 19.2627 11.1198 19.2627 10.7812C19.2627 10.5404 19.2122 10.3483 19.1113 10.2051C19.0104 10.0586 18.8737 9.93815 18.7012 9.84375C18.5286 9.74609 18.335 9.65007 18.1201 9.55566L17.1436 9.12109C16.9352 9.02995 16.7253 8.91276 16.5137 8.76953C16.3021 8.6263 16.1247 8.44238 15.9814 8.21777C15.8415 7.99316 15.7715 7.71647 15.7715 7.3877C15.7715 7.04264 15.8626 6.73665 16.0449 6.46973C16.2272 6.2028 16.4762 5.99284 16.792 5.83984C17.111 5.68359 17.4707 5.60547 17.8711 5.60547C18.2845 5.60547 18.6605 5.68359 18.999 5.83984C19.3376 5.99609 19.6224 6.18978 19.8535 6.4209L19.4092 6.95801C19.2041 6.7627 18.9714 6.60807 18.7109 6.49414C18.4505 6.37695 18.1706 6.31836 17.8711 6.31836C17.487 6.31836 17.1761 6.41113 16.9385 6.59668C16.7041 6.78223 16.5869 7.02962 16.5869 7.33887C16.5869 7.56022 16.6439 7.74251 16.7578 7.88574C16.8717 8.02897 17.015 8.14779 17.1875 8.24219C17.36 8.33333 17.5342 8.41634 17.71 8.49121L18.6768 8.90625C18.9404 9.01693 19.1781 9.14876 19.3896 9.30176C19.6012 9.45475 19.7689 9.64518 19.8926 9.87305C20.0163 10.0977 20.0781 10.3792 20.0781 10.7178C20.0781 11.0726 19.9854 11.3949 19.7998 11.6846C19.6143 11.971 19.3506 12.1989 19.0088 12.3682C18.6702 12.5374 18.265 12.6221 17.793 12.6221ZM21.7428 12.5V5.15137H22.5338V7.17285L22.5045 8.21289C22.7454 7.98177 22.9993 7.78483 23.2662 7.62207C23.5331 7.45931 23.8391 7.37793 24.1842 7.37793C24.705 7.37793 25.0875 7.54395 25.3316 7.87598C25.5758 8.20475 25.6979 8.68815 25.6979 9.32617V12.5H24.9166V9.42871C24.9166 8.95345 24.8401 8.60677 24.6871 8.38867C24.5341 8.17057 24.2835 8.06152 23.9352 8.06152C23.678 8.06152 23.4452 8.12988 23.2369 8.2666C23.0286 8.40332 22.7942 8.60189 22.5338 8.8623V12.5H21.7428ZM27.7287 12.5V7.50488H28.5197V12.5H27.7287ZM28.1389 6.4502C27.9794 6.4502 27.8508 6.40137 27.7531 6.30371C27.6555 6.2028 27.6066 6.06934 27.6066 5.90332C27.6066 5.75033 27.6555 5.625 27.7531 5.52734C27.8508 5.42969 27.9794 5.38086 28.1389 5.38086C28.2984 5.38086 28.427 5.42969 28.5246 5.52734C28.6223 5.625 28.6711 5.75033 28.6711 5.90332C28.6711 6.06934 28.6223 6.2028 28.5246 6.30371C28.427 6.40137 28.2984 6.4502 28.1389 6.4502ZM30.6482 14.6289V7.50488H31.3074L31.3807 8.08105H31.4002C31.6281 7.89551 31.8803 7.73275 32.157 7.59277C32.437 7.44954 32.7202 7.37793 33.0066 7.37793C33.6577 7.37793 34.1525 7.60905 34.491 8.07129C34.8296 8.53353 34.9988 9.15202 34.9988 9.92676C34.9988 10.4932 34.8979 10.9782 34.6961 11.3818C34.4943 11.7822 34.2273 12.0898 33.8953 12.3047C33.5665 12.5163 33.2085 12.6221 32.8211 12.6221C32.5932 12.6221 32.3621 12.5716 32.1277 12.4707C31.8934 12.3698 31.6574 12.2266 31.4197 12.041L31.4393 12.9199V14.6289H30.6482ZM32.699 11.958C33.1255 11.958 33.4786 11.7773 33.7586 11.416C34.0418 11.0514 34.1834 10.5583 34.1834 9.93652C34.1834 9.37337 34.0776 8.91602 33.866 8.56445C33.6544 8.21289 33.3061 8.03711 32.8211 8.03711C32.603 8.03711 32.3816 8.09896 32.157 8.22266C31.9324 8.3431 31.6932 8.51888 31.4393 8.75V11.4209C31.6769 11.6162 31.9031 11.7546 32.118 11.8359C32.3361 11.9173 32.5298 11.958 32.699 11.958ZM38.0502 12.6221C37.6791 12.6221 37.334 12.5602 37.015 12.4365C36.696 12.3096 36.4226 12.1354 36.1947 11.9141L36.5658 11.4502C36.7774 11.626 37.002 11.7627 37.2396 11.8604C37.4805 11.958 37.7605 12.0068 38.0795 12.0068C38.4148 12.0068 38.6671 11.9271 38.8363 11.7676C39.0056 11.6048 39.0902 11.4128 39.0902 11.1914C39.0902 11.0156 39.0349 10.8708 38.9242 10.7568C38.8135 10.6396 38.6703 10.5404 38.4945 10.459C38.322 10.3776 38.1397 10.3027 37.9477 10.2344C37.7003 10.1432 37.4643 10.0374 37.2396 9.91699C37.015 9.79655 36.8311 9.64518 36.6879 9.46289C36.5447 9.2806 36.473 9.05273 36.473 8.7793C36.473 8.38867 36.6212 8.05827 36.9174 7.78809C37.2136 7.51465 37.6319 7.37793 38.1723 7.37793C38.4815 7.37793 38.7663 7.43164 39.0268 7.53906C39.2904 7.64323 39.5183 7.77507 39.7104 7.93457L39.349 8.39844C39.1732 8.27148 38.991 8.17383 38.8021 8.10547C38.6166 8.03385 38.4099 7.99805 38.182 7.99805C37.8533 7.99805 37.6124 8.07454 37.4594 8.22754C37.3096 8.37728 37.2348 8.54818 37.2348 8.74023C37.2348 8.97786 37.3357 9.1569 37.5375 9.27734C37.7393 9.39779 37.9916 9.51497 38.2943 9.62891C38.558 9.72005 38.8087 9.82585 39.0463 9.94629C39.2839 10.0635 39.4776 10.2165 39.6273 10.4053C39.7771 10.5941 39.852 10.8431 39.852 11.1523C39.852 11.556 39.6973 11.9027 39.3881 12.1924C39.0788 12.4788 38.6329 12.6221 38.0502 12.6221ZM45.0709 12.5V7.50488H45.8619V12.5H45.0709ZM45.4811 6.4502C45.3215 6.4502 45.193 6.40137 45.0953 6.30371C44.9977 6.2028 44.9488 6.06934 44.9488 5.90332C44.9488 5.75033 44.9977 5.625 45.0953 5.52734C45.193 5.42969 45.3215 5.38086 45.4811 5.38086C45.6406 5.38086 45.7691 5.42969 45.8668 5.52734C45.9645 5.625 46.0133 5.75033 46.0133 5.90332C46.0133 6.06934 45.9645 6.2028 45.8668 6.30371C45.7691 6.40137 45.6406 6.4502 45.4811 6.4502ZM47.9904 12.5V7.50488H48.6496L48.7229 8.22266H48.7424C48.9833 7.98503 49.2388 7.78483 49.509 7.62207C49.7792 7.45931 50.0868 7.37793 50.4318 7.37793C50.9527 7.37793 51.3352 7.54395 51.5793 7.87598C51.8234 8.20475 51.9455 8.68815 51.9455 9.32617V12.5H51.1643V9.42871C51.1643 8.95345 51.0878 8.60677 50.9348 8.38867C50.7818 8.17057 50.5311 8.06152 50.1828 8.06152C49.9257 8.06152 49.6929 8.12988 49.4846 8.2666C49.2762 8.40332 49.0419 8.60189 48.7814 8.8623V12.5H47.9904ZM57.5746 12.5V11.8408H59.0932V6.91406H57.8969V6.40137C58.4633 6.30371 58.9239 6.14583 59.2787 5.92773H59.8842V11.8408H61.2562V12.5H57.5746ZM62.6719 10.2246V9.61426H65.0205V10.2246H62.6719ZM66.2457 12.5V12.0166C66.913 11.359 67.4778 10.778 67.94 10.2734C68.4023 9.76888 68.7538 9.31315 68.9947 8.90625C69.2356 8.49935 69.3561 8.11686 69.3561 7.75879C69.3561 7.37793 69.2519 7.06543 69.0436 6.82129C68.8352 6.57389 68.5146 6.4502 68.0816 6.4502C67.8082 6.4502 67.551 6.52832 67.3102 6.68457C67.0725 6.83757 66.8577 7.02474 66.6656 7.24609L66.2262 6.81152C66.4866 6.50879 66.7714 6.26465 67.0807 6.0791C67.3932 5.89355 67.761 5.80078 68.1842 5.80078C68.7864 5.80078 69.2633 5.97656 69.6148 6.32812C69.9664 6.67969 70.1422 7.14355 70.1422 7.71973C70.1422 8.14616 70.0217 8.57096 69.7809 8.99414C69.5432 9.41732 69.2128 9.86328 68.7896 10.332C68.3697 10.8008 67.8863 11.3151 67.3395 11.875C67.512 11.8587 67.6959 11.8457 67.8912 11.8359C68.0898 11.8262 68.2737 11.8213 68.443 11.8213H70.4596V12.5H66.2457ZM75.8836 12.5V5.73242H77.5535C78.5952 5.73242 79.3862 6.02539 79.9266 6.61133C80.4669 7.19727 80.7371 8.02409 80.7371 9.0918C80.7371 10.1628 80.4686 10.9993 79.9314 11.6016C79.3943 12.2005 78.6147 12.5 77.5926 12.5H75.8836ZM76.6844 11.8408H77.49C78.2973 11.8408 78.9012 11.5983 79.3016 11.1133C79.702 10.625 79.9021 9.95117 79.9021 9.0918C79.9021 8.23568 79.702 7.57161 79.3016 7.09961C78.9012 6.6276 78.2973 6.3916 77.49 6.3916H76.6844V11.8408ZM83.6811 12.6221C83.2644 12.6221 82.9161 12.5016 82.6361 12.2607C82.3562 12.0166 82.2162 11.6683 82.2162 11.2158C82.2162 10.6689 82.4636 10.249 82.9584 9.95605C83.4564 9.66309 84.2409 9.45638 85.3119 9.33594C85.3119 9.11458 85.281 8.90462 85.2191 8.70605C85.1605 8.50749 85.0548 8.34473 84.9018 8.21777C84.752 8.09082 84.5372 8.02734 84.2572 8.02734C83.961 8.02734 83.6827 8.08431 83.4223 8.19824C83.1651 8.31217 82.9389 8.43099 82.7436 8.55469L82.4359 8.02734C82.6573 7.87435 82.9356 7.72786 83.2709 7.58789C83.6094 7.44792 83.9805 7.37793 84.3842 7.37793C84.9929 7.37793 85.4307 7.5651 85.6977 7.93945C85.9678 8.3138 86.1029 8.80697 86.1029 9.41895V12.5H85.4437L85.3803 11.8945H85.351C85.1101 12.0931 84.848 12.264 84.5648 12.4072C84.2849 12.5505 83.9903 12.6221 83.6811 12.6221ZM83.8959 11.9873C84.1465 11.9873 84.3809 11.9287 84.599 11.8115C84.8204 11.6943 85.058 11.5267 85.3119 11.3086V9.86328C84.7357 9.9349 84.2784 10.0293 83.9398 10.1465C83.6013 10.2637 83.3588 10.4053 83.2123 10.5713C83.0658 10.7373 82.9926 10.931 82.9926 11.1523C82.9926 11.4486 83.0805 11.6618 83.2562 11.792C83.432 11.9222 83.6452 11.9873 83.8959 11.9873ZM88.1533 14.6729C88.0426 14.6729 87.9385 14.6615 87.8408 14.6387C87.7432 14.6191 87.6553 14.5931 87.5771 14.5605L87.7432 13.9404C87.805 13.96 87.8685 13.9762 87.9336 13.9893C87.9987 14.0055 88.0589 14.0137 88.1143 14.0137C88.404 14.0137 88.6416 13.9079 88.8271 13.6963C89.0127 13.4847 89.1592 13.2194 89.2666 12.9004L89.3936 12.5195L87.3721 7.50488H88.1875L89.2373 10.3271C89.3154 10.5452 89.3968 10.778 89.4814 11.0254C89.5661 11.2695 89.6491 11.5072 89.7305 11.7383H89.7744C89.846 11.5072 89.9176 11.2695 89.9893 11.0254C90.0609 10.7812 90.1292 10.5485 90.1943 10.3271L91.1221 7.50488H91.8984L89.999 12.9395C89.8851 13.2617 89.7467 13.5531 89.584 13.8135C89.4245 14.0771 89.2275 14.2855 88.9932 14.4385C88.762 14.5947 88.4821 14.6729 88.1533 14.6729ZM94.5787 12.6221C94.2076 12.6221 93.8626 12.5602 93.5436 12.4365C93.2245 12.3096 92.9511 12.1354 92.7232 11.9141L93.0943 11.4502C93.3059 11.626 93.5305 11.7627 93.7682 11.8604C94.0091 11.958 94.289 12.0068 94.608 12.0068C94.9433 12.0068 95.1956 11.9271 95.3648 11.7676C95.5341 11.6048 95.6188 11.4128 95.6188 11.1914C95.6188 11.0156 95.5634 10.8708 95.4527 10.7568C95.3421 10.6396 95.1988 10.5404 95.023 10.459C94.8505 10.3776 94.6682 10.3027 94.4762 10.2344C94.2288 10.1432 93.9928 10.0374 93.7682 9.91699C93.5436 9.79655 93.3596 9.64518 93.2164 9.46289C93.0732 9.2806 93.0016 9.05273 93.0016 8.7793C93.0016 8.38867 93.1497 8.05827 93.4459 7.78809C93.7421 7.51465 94.1604 7.37793 94.7008 7.37793C95.01 7.37793 95.2949 7.43164 95.5553 7.53906C95.8189 7.64323 96.0468 7.77507 96.2389 7.93457L95.8775 8.39844C95.7018 8.27148 95.5195 8.17383 95.3307 8.10547C95.1451 8.03385 94.9384 7.99805 94.7105 7.99805C94.3818 7.99805 94.1409 8.07454 93.9879 8.22754C93.8382 8.37728 93.7633 8.54818 93.7633 8.74023C93.7633 8.97786 93.8642 9.1569 94.066 9.27734C94.2678 9.39779 94.5201 9.51497 94.8229 9.62891C95.0865 9.72005 95.3372 9.82585 95.5748 9.94629C95.8124 10.0635 96.0061 10.2165 96.1559 10.4053C96.3056 10.5941 96.3805 10.8431 96.3805 11.1523C96.3805 11.556 96.2258 11.9027 95.9166 12.1924C95.6074 12.4788 95.1614 12.6221 94.5787 12.6221Z" fill="#1FAD40"/>
<path d="M3.8501 5.75H4.9501V8.5H7.7001V9.6H3.8501V5.75Z" fill="#1FAD40"/>
<path fill-rule="evenodd" clip-rule="evenodd" d="M11 8.5C11 11.5375 8.53754 14 5.5 14C2.46243 14 0 11.5375 0 8.5C0 5.46243 2.46243 3 5.5 3C8.53754 3 11 5.46243 11 8.5ZM9.9 8.5C9.9 10.9301 7.93007 12.9 5.5 12.9C3.06995 12.9 1.1 10.9301 1.1 8.5C1.1 6.06995 3.06995 4.1 5.5 4.1C7.93007 4.1 9.9 6.06995 9.9 8.5Z" fill="#1FAD40"/>
</svg>
