<svg width="31" height="31" viewBox="0 0 31 31" fill="none" xmlns="http://www.w3.org/2000/svg">
<circle cx="15.5" cy="15.5" r="15.5" fill="#F9F0E5"/>
<path d="M15.5 5.5V26" stroke="#15005B" stroke-width="1.1" stroke-miterlimit="10" stroke-linecap="round" stroke-linejoin="round"/>
<path d="M15.4999 21.2694C12.4486 21.2694 9.98071 18.8015 9.98071 15.7502C9.98071 12.6988 12.4486 10.231 15.4999 10.231" stroke="#15005B" stroke-width="1.1" stroke-miterlimit="10" stroke-linecap="round" stroke-linejoin="round"/>
<path d="M8.25391 8.50439L9.92545 10.1759" stroke="#15005B" stroke-width="1.1" stroke-miterlimit="10" stroke-linecap="round" stroke-linejoin="round"/>
<path d="M5.25 15.75H7.61538" stroke="#15005B" stroke-width="1.1" stroke-miterlimit="10" stroke-linecap="round" stroke-linejoin="round"/>
<path d="M8.25391 22.9962L9.92545 21.3247" stroke="#15005B" stroke-width="1.1" stroke-miterlimit="10" stroke-linecap="round" stroke-linejoin="round"/>
<path d="M15.5 13.03C16.4462 11.3585 18.2438 10.231 20.3017 10.231C20.4279 10.231 20.5462 10.2388 20.6723 10.2467C19.3556 10.9406 18.4646 12.3204 18.4646 13.9052C18.4646 16.1917 20.3175 18.0446 22.604 18.0446C23.8656 18.0446 24.9931 17.4769 25.75 16.586C25.34 19.2431 23.0613 21.2694 20.3017 21.2694C18.2438 21.2694 16.4462 20.1419 15.5 18.4704" stroke="#15005B" stroke-width="1.1" stroke-miterlimit="10" stroke-linecap="round" stroke-linejoin="round"/>
</svg>
