<svg width="42" height="42" viewBox="0 0 42 42" fill="none" xmlns="http://www.w3.org/2000/svg">
<circle cx="21" cy="21" r="21" fill="#F9F0E5"/>
<path d="M31.6772 29.8173C31.2798 29.4699 30.6744 29.5075 30.3243 29.9018C28.7161 31.7091 26.928 31.0519 26.0955 30.5778C27.8126 19.7576 23.9291 17.7438 18.5887 14.9742C16.3418 13.81 13.797 12.4863 11.2237 10.2377C10.973 10.0171 10.6277 9.94669 10.3108 10.0406C9.99388 10.1345 9.74791 10.3879 9.66277 10.7072C8.26735 15.9741 9.09041 21.0955 11.99 25.1231C14.8376 29.0803 19.3455 31.4979 24.6954 31.9532C25.4569 32.4836 26.6348 33 27.9403 33C29.1843 33 30.5419 32.5306 31.7623 31.1599C32.1076 30.7656 32.0745 30.1647 31.6772 29.8173ZM13.551 24.0153C11.2568 20.8326 10.4385 16.8566 11.1859 12.6787C13.4895 14.4766 15.708 15.6267 17.6994 16.6594C22.5715 19.1849 25.4096 20.6589 24.3974 28.8738L21.9235 25.8789L22.4438 22.8088C22.5289 22.2925 22.1789 21.7996 21.6539 21.7151C21.1335 21.6306 20.6369 21.978 20.5517 22.4943L20.3105 23.9261L16.9804 19.8937L15.1167 17.0866C14.8282 16.6453 14.2322 16.5233 13.7875 16.8143C13.3476 17.1007 13.2246 17.6921 13.5132 18.1287L15.4005 20.9781C15.4194 21.0063 15.4384 21.0344 15.462 21.0579L16.427 22.2268L15.7316 22.2362C15.2018 22.2455 14.7809 22.6774 14.7856 23.1985C14.795 23.7195 15.2208 24.1373 15.7458 24.1373C15.7505 24.1373 15.7553 24.1373 15.76 24.1373L17.9832 24.1045L22.6283 29.7328C18.8346 28.9348 15.6654 26.9538 13.551 24.0153Z" fill="#01005B"/>
</svg>
