<svg width="15" height="13" viewBox="0 0 15 13" fill="none" xmlns="http://www.w3.org/2000/svg">
<path d="M14.5425 4.93921C14.5196 4.86829 14.4772 4.80522 14.4202 4.75716C14.3632 4.7091 14.2939 4.67797 14.2202 4.6673L9.99616 4.05353L8.10665 0.222306C8.07361 0.15556 8.02258 0.0993764 7.95931 0.0600955C7.89604 0.0208145 7.82305 0 7.74858 0C7.67411 0 7.60112 0.0208145 7.53785 0.0600955C7.47458 0.0993764 7.42355 0.15556 7.39051 0.222306L5.501 4.05064L1.277 4.66442C1.20336 4.67524 1.13422 4.70641 1.07735 4.75443C1.02048 4.80244 0.978151 4.86538 0.955134 4.93616C0.932117 5.00695 0.929326 5.08275 0.947076 5.15503C0.964825 5.22731 1.00241 5.2932 1.05559 5.34527L4.11199 8.3247L3.3908 12.5324C3.37872 12.6055 3.38719 12.6804 3.41524 12.749C3.44329 12.8175 3.48984 12.8769 3.54968 12.9205C3.60952 12.9641 3.6803 12.9902 3.75412 12.996C3.82795 13.0017 3.90191 12.9868 3.96775 12.9529L7.74894 10.9688L11.5272 12.9551C11.5931 12.989 11.6672 13.0039 11.7411 12.9982C11.815 12.9924 11.8858 12.9662 11.9457 12.9225C12.0056 12.8788 12.0521 12.8193 12.0801 12.7507C12.1081 12.682 12.1164 12.607 12.1042 12.5339L11.383 8.32615L14.4401 5.34671C14.4934 5.29504 14.5312 5.22953 14.5493 5.15754C14.5674 5.08555 14.5651 5.00993 14.5425 4.93921Z" fill="#FFB801"/>
</svg>
